<svg width="540" height="540" viewBox="0 0 540 540" fill="none" xmlns="http://www.w3.org/2000/svg">
<path d="M345.318 25.5448C333.239 21.9969 333.493 6.96651 321.161 5.67662C310.289 4.5395 306.217 16.9383 295.582 15.6107C284.214 14.1916 278.53 0 270.004 0C261.478 0 258.635 11.3532 247.267 14.9011C235.899 18.449 228.929 2.80647 216.715 5.67662C204.636 8.51493 207.656 21.9959 195.4 24.8352C184.639 27.3282 176.216 17.0299 167.69 19.8682C159.164 22.7065 158.453 35.4789 151.348 42.5747C142.911 51.0003 131.173 39.8856 120.796 45.413C110.138 51.0896 115.112 65.9907 107.296 72.3769C97.7644 80.1653 83.9817 70.4621 77.4545 80.8919C70.9273 91.3217 78.165 103.598 71.7704 108.565C61.1913 116.783 51.876 111.404 45.4814 120.628C38.7503 130.338 49.8384 142.5 43.3499 151.14C36.9552 159.655 24.8765 156.817 20.6134 166.751C15.5677 178.509 29.8616 187.06 24.0798 197.972C19.1924 207.197 6.60694 206.392 4.89596 217.84C3.29857 228.529 15.8618 233.609 14.9293 244.804C14.0021 255.936 0.396219 258.476 0.00852329 269.64C-0.404472 281.532 14.3258 284.588 14.9293 296.603C15.4972 307.91 2.69179 311.771 4.98212 322.858C7.28135 333.988 21.49 333.998 24.8765 344.855C28.3903 356.12 15.0225 363.503 19.9029 373.947C24.8765 384.591 37.6657 381.043 44.0604 390.977C49.612 399.602 39.5658 410.691 45.4814 420.07C51.6379 429.831 64.8301 424.408 71.7704 432.842C79.1295 441.786 70.9773 452.208 78.165 460.516C86.2165 469.823 98.4807 460.519 107.296 468.321C115.288 475.394 111.245 489.807 120.796 494.576C130.743 499.543 140.383 490.276 149.927 495.995C160.585 502.381 156.027 514.733 165.558 519.411C176.124 524.596 183.565 512.083 194.689 515.153C206.061 518.292 205.986 532.291 217.426 534.312C228.747 536.312 233.696 523.232 245.136 524.378C257.312 525.597 257.776 540.468 270.004 539.989C281.542 539.536 283.931 526.227 295.582 525.088C306.24 524.045 311.297 537.219 322.582 535.022C333.958 532.806 333.686 517.316 345.318 514.444C356.686 511.637 361.353 524.226 372.318 520.12C384.437 515.582 380.199 500.075 392.212 495.285C402.856 491.041 410.349 500.212 419.922 494.576C430.889 488.119 423.065 475.55 432.711 468.321C441.908 461.43 453.164 468.625 461.132 460.516C469.598 451.899 460.975 441.091 468.237 432.133C475.859 422.73 490.12 429.58 495.236 419.36C500.921 408.007 489.495 400.291 495.947 390.268C502.342 380.334 518.645 383.377 520.815 371.819C522.947 360.465 511.207 355.902 515.131 344.145C518.683 333.502 534.334 333.175 535.025 321.439C535.736 309.376 522.922 305.956 525.078 294.475C527.21 283.122 539.854 281.094 539.999 269.64C540.147 257.949 525.808 256.473 525.078 244.804C524.368 233.451 537.587 228.714 535.025 217.84C532.183 205.778 518.06 207.141 515.131 195.134C512.516 184.415 523.45 177.201 519.394 166.751C514.941 155.277 500.731 160.351 495.947 149.011C491.733 139.023 500.977 128.938 494.526 119.919C487.421 109.985 477.146 116.753 468.947 108.565C460.421 100.05 468.947 87.9876 461.842 79.4727C453.928 69.9882 442.275 79.8388 432.711 72.3769C422.72 64.5812 430.328 50.2109 419.212 44.7034C409.737 40.0091 403.202 48.835 392.923 45.413C380.133 41.1555 384.102 24.4292 372.318 20.5778C361.302 16.9775 356.438 28.8111 345.318 25.5448Z" fill="#DEDBC7"/>
</svg>
